<svg xmlns="http://www.w3.org/2000/svg" version="1.1" xmlnsXlink="http://www.w3.org/1999/xlink" xmlnsSvgjs="http://svgjs.dev/svgjs" width="1000" height="1125" viewBox="0 0 1000 1125"><g transform="matrix(1,0,0,1,1.7053025658242404e-13,0)"><svg viewBox="0 0 320 360" dataBackgroundColor="#ffffff" preserveAspectRatio="xMidYMid meet" height="1125" width="1000" xmlns="http://www.w3.org/2000/svg" xmlnsXlink="http://www.w3.org/1999/xlink"><g id="tight-bounds" transform="matrix(1,0,0,1,0,0)"><svg viewBox="0 0 320 360" height="360" width="320"><g><svg></svg></g><g><svg viewBox="0 0 320 360" height="360" width="320"><g><path xmlns="http://www.w3.org/2000/svg" d="M320 204.145c-0.08-8.44-5.414-15.128-5.494-23.568-0.04-8.44 5.215-18.631 5.136-27.071-2.667-8.002-9.833-12.7-12.501-20.702-2.667-8.002-0.836-19.348-3.463-27.35-5.016-6.808-13.297-9.037-18.274-15.805-5.016-6.808-6.768-18.154-11.744-24.921-6.847-4.897-15.407-4.499-22.294-9.396-6.847-4.897-12.023-15.168-18.91-20.065-8.042-2.548-16.044 0.518-24.086-2.07-8.042-2.548-16.123-10.709-24.165-13.257-8.44 0.08-15.128 5.414-23.568 5.494-8.44 0.04-18.631-5.215-27.071-5.135-8.002 2.667-12.7 9.833-20.702 12.5-8.002 2.667-19.348 0.836-27.35 3.504-6.808 5.016-9.037 13.297-15.805 18.273-6.808 5.016-18.154 6.768-24.922 11.784-4.897 6.847-4.499 15.407-9.395 22.294-4.897 6.847-15.168 12.023-20.065 18.91-2.548 8.042 0.478 16.044-2.07 24.086-2.548 8.042-10.709 16.123-13.257 24.165 0.04 8.44 5.414 15.128 5.494 23.568 0.04 8.44-5.215 18.631-5.136 27.071 2.667 8.002 9.833 12.7 12.501 20.702 2.667 8.002 0.836 19.348 3.503 27.35 5.016 6.808 13.297 9.037 18.273 15.845 5.016 6.808 6.768 18.154 11.745 24.921 6.847 4.897 15.407 4.499 22.294 9.396 6.847 4.897 12.023 15.168 18.91 20.065 8.042 2.548 16.044-0.478 24.086 2.07 8.042 2.548 16.123 10.709 24.165 13.257 8.44-0.08 15.128-5.414 23.568-5.494 8.44-0.04 18.631 5.215 27.071 5.135 8.002-2.667 12.7-9.833 20.702-12.5 8.002-2.667 19.348-0.836 27.35-3.504 6.808-5.016 9.037-13.297 15.845-18.273 6.808-5.016 18.154-6.768 24.921-11.744 4.897-6.847 4.499-15.407 9.396-22.294 4.897-6.847 15.168-12.023 20.064-18.91 2.548-8.042-0.478-16.044 2.071-24.086 2.468-8.121 10.63-16.203 13.177-24.245zM305.987 227.395c-3.623 7.126-12.501 13.456-16.164 20.582-3.623 7.126-2.03 15.088-5.653 22.215-5.653 5.653-16.044 8.918-21.737 14.57-5.653 5.653-6.569 13.735-12.261 19.388-7.126 3.623-18.034 3.503-25.161 7.166-7.126 3.623-10.51 11.028-17.636 14.651-7.922 1.234-18.233-2.229-26.156-0.996-7.922 1.234-13.416 7.246-21.299 8.48-7.922-1.234-16.641-7.763-24.563-8.997-7.922-1.274-14.969 2.747-22.891 1.473-7.126-3.623-13.456-12.54-20.582-16.163-7.126-3.623-15.088-2.03-22.255-5.654-5.653-5.653-8.918-16.044-14.571-21.736-5.653-5.653-13.735-6.609-19.387-12.262-3.623-7.126-3.503-18.034-7.166-25.161-3.623-7.126-11.028-10.51-14.651-17.636-1.234-7.922 2.229-18.233 0.995-26.156-1.274-7.922-7.246-13.416-8.479-21.298 1.274-7.922 7.763-16.641 8.997-24.564 1.234-7.922-2.747-14.969-1.473-22.891 3.623-7.126 12.54-13.456 16.163-20.582 3.623-7.126 2.03-15.088 5.653-22.254 5.653-5.653 16.044-8.918 21.737-14.571 5.653-5.653 6.609-13.735 12.262-19.388 7.126-3.623 18.034-3.503 25.16-7.166 7.126-3.623 10.51-11.028 17.637-14.651 7.922-1.234 18.233 2.229 26.155 0.996 7.922-1.234 13.416-7.246 21.299-8.48 7.922 1.234 16.641 7.763 24.564 8.997 7.922 1.274 14.969-2.747 22.891-1.473 7.126 3.623 13.456 12.54 20.582 16.163 7.126 3.623 15.088 2.03 22.254 5.654 5.653 5.653 8.918 16.044 14.571 21.736 5.653 5.653 13.735 6.609 19.388 12.262 3.623 7.126 3.503 18.034 7.166 25.161 3.623 7.126 11.028 10.51 14.65 17.636 1.274 7.922-2.229 18.233-0.995 26.156 1.234 7.922 7.246 13.416 8.48 21.298-1.234 7.922-7.763 16.641-8.997 24.564-1.234 7.922 2.747 15.009 1.473 22.931z" fill="#915eff" fillRule="nonzero" stroke="none" strokeWidth="1" strokeLinecap="butt" strokeLinejoin="miter" strokeMiterlimit="10" strokeDasharray="" strokeDashoffset="0" fontFamily="none" fontWeight="none" fontSize="none" textAnchor="none" style="mix-blend-mode: normal" dataFillPaletteColor="tertiary"></path></g><g transform="matrix(1,0,0,1,60.999999999999986,80.99999999999999)"><svg viewBox="0 0 198.00000000000003 198.00000000000003" height="198.00000000000003" width="198.00000000000003"><g><svg viewBox="0 0 198.00000000000003 198.00000000000003" height="198.00000000000003" width="198.00000000000003"><g><svg viewBox="0 0 198.00000000000003 198.00000000000003" height="198.00000000000003" width="198.00000000000003"><g id="textblocktransform"><svg viewBox="0 0 198.00000000000003 198.00000000000003" height="198.00000000000003" width="198.00000000000003" id="textblock"><g><svg viewBox="0 0 198.00000000000003 198.00000000000003" height="198.00000000000003" width="198.00000000000003"><g transform="matrix(1,0,0,1,52.33095244168787,52.33095244168787)"><svg viewBox="0 0 93.33809511662429 93.33809511662429" height="93.33809511662429" width="93.33809511662429"><g><circle r="47" cx="46.669047558312144" cy="46.669047558312144" fill="#d90000" dataFillPaletteColor="accent"></circle></g></svg></g><g><path d="M7.113 58.94l18.626 6.566-1.798 5.099-7.046-2.484-1.237 3.509 7.046 2.484-1.82 5.164-18.626-6.566 1.82-5.165 7.319 2.58 1.237-3.508-7.319-2.58z" fill="#915eff" dataFillPaletteColor="primary"></path><path d="M18.459 40.329l18.356 8.137-2.99 4.384-2.913-1.251-2.114 3.098 2.228 2.257-2.843 4.169-14.276-14.119zM26.11 52.019l1.382-2.028-6.455-3.05-0.123 0.181z" fill="#915eff" dataFillPaletteColor="primary"></path><path d="M30.468 35.018c-1.284-1.384-1.911-2.871-1.879-4.461 0.031-1.589 0.749-3.035 2.152-4.337 1.409-1.307 2.983-2.504 4.723-3.592v0l2.992 4.163c-1.875 1.068-3.1 1.869-3.676 2.403v0c-0.731 0.678-0.823 1.313-0.276 1.903v0c0.217 0.234 0.603 0.298 1.157 0.191 0.554-0.106 1.191-0.271 1.91-0.493 0.719-0.222 1.483-0.396 2.293-0.521 0.809-0.125 1.677-0.041 2.602 0.253 0.925 0.303 1.761 0.856 2.506 1.661v0c1.37 1.477 2.036 2.986 1.998 4.528-0.044 1.546-0.792 2.993-2.245 4.341-1.453 1.348-3.082 2.437-4.887 3.268v0l-2.966-3.71c2.11-1.06 3.492-1.892 4.145-2.499 0.653-0.606 0.713-1.197 0.179-1.772v0c-0.271-0.292-0.695-0.402-1.272-0.33-0.582 0.077-1.236 0.222-1.964 0.435-0.728 0.213-1.497 0.391-2.307 0.535-0.81 0.144-1.677 0.064-2.603-0.239-0.925-0.293-1.786-0.869-2.582-1.727z" fill="#915eff" dataFillPaletteColor="primary"></path><path d="M53.084 11.025l12.927 15.364-4.61 2.628-2.07-2.402-3.258 1.857 1.012 3.005-4.384 2.5-6.636-18.95zM54.832 24.886l2.131-1.215-4.463-5.573-0.19 0.108z" fill="#915eff" dataFillPaletteColor="primary"></path><path d="M79.296 1.519l5.524 18.961-5.008 1.459-6.515-7.67-0.24 0.07 2.57 8.819-4.645 1.353-5.524-18.961 5.162-1.503 6.404 8.004 0.249-0.073-2.65-9.097z" fill="#915eff" dataFillPaletteColor="primary"></path><path d="M102.726 5.674c0.184-1.879 0.881-3.335 2.091-4.365 1.21-1.031 2.768-1.452 4.675-1.266 1.913 0.188 3.853 0.571 5.82 1.152v0l-1.132 5c-2.043-0.695-3.455-1.08-4.236-1.157v0c-0.993-0.097-1.528 0.254-1.607 1.056v0c-0.031 0.318 0.177 0.649 0.624 0.993 0.447 0.345 0.993 0.712 1.636 1.102 0.643 0.39 1.28 0.847 1.91 1.37 0.63 0.523 1.142 1.228 1.537 2.115 0.387 0.893 0.527 1.886 0.42 2.978v0c-0.197 2.005-0.885 3.505-2.065 4.498-1.186 0.993-2.766 1.393-4.738 1.199-1.972-0.193-3.868-0.69-5.687-1.49v0l0.81-4.681c2.192 0.876 3.732 1.358 4.619 1.445 0.887 0.087 1.368-0.26 1.445-1.041v0c0.039-0.397-0.16-0.787-0.597-1.171-0.443-0.384-0.986-0.778-1.628-1.182-0.642-0.404-1.285-0.861-1.93-1.371-0.645-0.511-1.161-1.213-1.547-2.106-0.394-0.887-0.534-1.913-0.42-3.078z" fill="#915eff" dataFillPaletteColor="primary"></path><path d="M135.683 6.689l-2.929 19.864-5.024-1.708 0.426-3.142-3.551-1.208-1.578 2.751-4.778-1.625 9.785-17.532zM126.467 17.188l2.323 0.79 1.212-7.036-0.207-0.071z" fill="#915eff" dataFillPaletteColor="primary"></path><path d="M157.948 18.506l-2.804 3.906-3.134-1.949-7.894 12.698-4.617-2.87 7.894-12.698-3.32-2.065 2.804-3.905z" fill="#915eff" dataFillPaletteColor="primary"></path><path d="M173.656 32.425l-3.551 3.242-2.664-2.555-10.35 10.79-3.923-3.763 10.35-10.79-2.821-2.707 3.551-3.241z" fill="#915eff" dataFillPaletteColor="primary"></path><path d="M185.414 48.454l-14.44 13.952-2.938-4.419 2.254-2.23-2.077-3.123-2.928 1.217-2.795-4.202 18.45-7.922zM171.706 51.15l1.359 2.043 5.253-4.835-0.121-0.183z" fill="#915eff" dataFillPaletteColor="primary"></path><path d="M190.545 75.238v0c-1.116 0.414-2.104 0.589-2.965 0.525-0.861-0.064-1.72-0.344-2.578-0.841v0l-6.955 5.399-2.047-5.518 5.991-4.328-0.254-0.683-6.677 2.476-1.859-5.012 18.517-6.868 2.567 6.921c0.738 1.989 0.81 3.618 0.217 4.887-0.593 1.27-1.912 2.284-3.957 3.042zM185.158 69.406c0.192 0.517 0.478 0.83 0.858 0.937 0.38 0.107 0.963 0.015 1.749-0.276 0.786-0.291 1.291-0.603 1.515-0.934 0.225-0.332 0.244-0.747 0.06-1.246v0l-0.299-0.804-4.171 1.547z" fill="#915eff" dataFillPaletteColor="primary"></path><path d="M30.283 135.494l-18.918 6.697-1.834-5.181 7.156-2.533-1.262-3.564-7.155 2.533-1.854-5.237 18.918-6.697 1.854 5.237-7.438 2.633 1.262 3.564 7.437-2.633z" fill="#915eff" dataFillPaletteColor="primary"></path><path d="M38.792 148.38l-14.475 14.382-3.054-4.461 2.274-2.294-2.153-3.144-2.966 1.282-2.902-4.239 18.639-8.3zM24.904 151.312l1.403 2.049 5.281-4.981-0.13-0.189z" fill="#915eff" dataFillPaletteColor="primary"></path><path d="M38.97 158.202c1.3-1.406 2.756-2.157 4.366-2.253 1.615-0.091 3.138 0.525 4.568 1.848 1.43 1.323 2.766 2.822 4.007 4.496v0l-3.984 3.352c-1.233-1.811-2.14-2.985-2.721-3.522v0c-0.747-0.691-1.398-0.736-1.953-0.135v0c-0.221 0.239-0.255 0.633-0.102 1.182 0.153 0.549 0.371 1.181 0.652 1.895 0.272 0.714 0.507 1.474 0.703 2.28 0.192 0.811 0.172 1.699-0.058 2.664-0.226 0.959-0.721 1.851-1.484 2.676v0c-1.386 1.499-2.866 2.286-4.44 2.361-1.564 0.075-3.086-0.572-4.564-1.94-1.479-1.368-2.709-2.932-3.691-4.691v0l3.528-3.285c1.237 2.05 2.188 3.383 2.852 3.996 0.664 0.614 1.267 0.628 1.809 0.043v0c0.275-0.298 0.352-0.738 0.231-1.322-0.117-0.579-0.311-1.23-0.585-1.953-0.273-0.723-0.512-1.488-0.717-2.295-0.205-0.806-0.195-1.689 0.031-2.648 0.231-0.964 0.748-1.881 1.552-2.749z" fill="#915eff" dataFillPaletteColor="primary"></path><path d="M65.349 170.134l-6.707 19.271-4.7-2.671 1.038-3.058-3.313-1.883-2.105 2.452-4.466-2.538 13.116-15.629zM54.151 178.856l2.159 1.228 2.564-6.792-0.2-0.114z" fill="#915eff" dataFillPaletteColor="primary"></path><path d="M86.361 177.385l-5.591 19.274-5.087-1.476-1.403-10.128-0.249-0.072-2.601 8.967-4.714-1.368 5.591-19.274 5.24 1.52 1.138 10.363 0.249 0.072 2.685-9.254z" fill="#915eff" dataFillPaletteColor="primary"></path><path d="M101.388 184.26c-0.186-1.906 0.22-3.492 1.219-4.759 1.005-1.267 2.477-1.996 4.416-2.185 1.939-0.189 3.947-0.192 6.023-0.008v0l-0.143 5.206c-2.172-0.282-3.652-0.385-4.44-0.308v0c-1.013 0.099-1.479 0.555-1.399 1.369v0c0.032 0.324 0.304 0.612 0.816 0.863 0.512 0.251 1.129 0.508 1.849 0.771 0.715 0.271 1.438 0.601 2.171 0.991 0.734 0.396 1.384 1.001 1.952 1.813 0.567 0.807 0.904 1.769 1.013 2.888v0c0.199 2.032-0.197 3.661-1.186 4.886-0.983 1.219-2.478 1.926-4.483 2.122-2.005 0.196-3.991 0.076-5.958-0.36v0l-0.11-4.82c2.355 0.438 3.982 0.613 4.882 0.525 0.9-0.088 1.311-0.529 1.233-1.323v0c-0.039-0.404-0.318-0.754-0.834-1.051-0.51-0.298-1.126-0.585-1.848-0.861-0.722-0.277-1.452-0.606-2.191-0.989-0.739-0.382-1.392-0.976-1.958-1.783-0.567-0.813-0.908-1.809-1.024-2.987z" fill="#915eff" dataFillPaletteColor="primary"></path><path d="M127.832 172.478l9.947 17.816-5.119 1.738-1.596-2.808-3.608 1.225 0.434 3.203-4.864 1.651-2.967-20.186zM126.911 186.642l2.352-0.798-3.373-6.429-0.217 0.074z" fill="#915eff" dataFillPaletteColor="primary"></path><path d="M145.083 163.029l2.293 4.317-3.187 1.978 8.013 12.907-4.695 2.914-8.012-12.906-3.373 2.094-2.302-4.312z" fill="#915eff" dataFillPaletteColor="primary"></path><path d="M156.739 152.249l3.135 3.752-2.71 2.593 10.504 10.974-3.993 3.821-10.503-10.975-2.868 2.745-3.142-3.744z" fill="#915eff" dataFillPaletteColor="primary"></path><path d="M165.015 140.38l18.743 8.067-3 4.497-2.976-1.254-2.115 3.17 2.296 2.275-2.851 4.273-14.652-14.199zM172.916 152.173l1.378-2.066-6.592-3.042-0.127 0.191z" fill="#915eff" dataFillPaletteColor="primary"></path><path d="M179.456 122.987v0c1.134 0.423 2.01 0.948 2.627 1.575 0.614 0.619 1.091 1.404 1.433 2.354v0l8.928 0.465-2.09 5.607-7.486-0.65-0.258 0.692 6.786 2.529-1.896 5.084-18.804-7.009 2.616-7.019c0.752-2.019 1.778-3.322 3.075-3.91 1.304-0.586 2.993-0.492 5.069 0.282zM179.725 131.06c0.195-0.523 0.182-0.954-0.04-1.292-0.215-0.336-0.722-0.652-1.519-0.95-0.798-0.297-1.394-0.392-1.79-0.283-0.401 0.106-0.696 0.411-0.884 0.915v0l-0.303 0.814 4.243 1.581z" fill="#915eff" dataFillPaletteColor="primary"></path><path d="M2.662 101.172c0-4.234 3.432-7.666 7.666-7.666 4.234 0 7.666 3.432 7.667 7.666 0 4.234-3.432 7.666-7.667 7.666-4.234 0-7.666-3.432-7.666-7.666z" fill="#915eff" dataFillPaletteColor="primary"></path><path d="M180.41 101.172c0-4.234 3.432-7.666 7.666-7.666 4.234 0 7.666 3.432 7.666 7.666 0 4.234-3.432 7.666-7.666 7.666-4.234 0-7.666-3.432-7.666-7.666z" fill="#915eff" dataFillPaletteColor="primary"></path></g></svg></g></svg></g></svg></g></svg></g></svg></g></svg></g><defs></defs></svg><rect width="320" height="360" fill="none" stroke="none" visibility="hidden"></rect></g></svg></g></svg>