<svg xmlns="http://www.w3.org/2000/svg" version="1.1" xmlnsXlink="http://www.w3.org/1999/xlink" xmlnsSvgjs="http://svgjs.dev/svgjs" width="1000" height="1125" viewBox="0 0 1000 1125"><g transform="matrix(1,0,0,1,0.0005762637636053114,0)"><svg viewBox="0 0 320 360" dataBackgroundColor="#ffffff" preserveAspectRatio="xMidYMid meet" height="1125" width="1000" xmlns="http://www.w3.org/2000/svg" xmlnsXlink="http://www.w3.org/1999/xlink"><g id="tight-bounds" transform="matrix(1,0,0,1,0.00018440440442191175,0)"><svg viewBox="0 0 320 360" height="360" width="320"><g><svg></svg></g><g><svg viewBox="0 0 320 360" height="360" width="320"><g><path xmlns="http://www.w3.org/2000/svg" d="M294.684 112.125c-8.775-10.699-25.381-16.201-43-22.006-7.56-2.498-15.357-5.097-22.985-8.235-7.695-3.173-15.256-7.257-22.613-11.172-14.952-8.033-30.41-16.336-46.105-16.336-15.661 0-31.119 8.303-46.071 16.336-7.358 3.949-14.952 8.033-22.648 11.205-7.594 3.139-15.425 5.704-22.985 8.236-17.618 5.839-34.224 11.341-42.999 22.006-11.712 14.277-11.442 35.439-11.172 57.817 0.034 3.375 0.068 6.717 0.067 10.024 0 3.308-0.034 6.649-0.101 10.024-0.27 22.411-0.54 43.54 11.172 57.851 8.775 10.666 25.381 16.167 42.966 22.006 7.56 2.498 15.357 5.097 23.019 8.235 7.695 3.173 15.256 7.223 22.579 11.172 14.986 8.067 30.444 16.37 46.105 16.37 15.695 0 31.153-8.303 46.105-16.336 7.358-3.949 14.918-8.033 22.614-11.172 7.594-3.139 15.357-5.704 22.884-8.202 17.72-5.873 34.326-11.374 43.101-22.039 11.712-14.277 11.442-35.439 11.171-57.817-0.034-3.409-0.101-6.75-0.101-10.058 0-3.308 0.034-6.649 0.101-9.991 0.371-22.479 0.641-43.641-11.104-57.918zM305.552 103.215c-15.728-19.171-45.801-23.727-71.486-34.326-22.985-9.45-46.375-28.588-74.051-28.587-27.676 0-51.066 19.137-74.052 28.587-25.719 10.598-55.758 15.155-71.486 34.326-17.078 20.791-14.311 50.121-14.311 76.785 0 26.63-2.768 55.994 14.277 76.785 15.728 19.171 45.801 23.727 71.487 34.326 22.985 9.484 46.375 28.588 74.051 28.587 27.676 0 51.066-19.103 74.051-28.587 25.719-10.598 55.758-15.155 71.486-34.326 17.045-20.791 14.277-50.121 14.277-76.785 0.068-26.664 2.835-55.994-14.243-76.785zM309.872 189.923c0.304 23.221 0.574 45.059-12.083 60.483-9.518 11.577-26.664 17.281-44.822 23.289-7.56 2.498-15.29 5.063-22.715 8.134-7.493 3.071-14.952 7.088-22.175 10.969-15.458 8.303-31.355 16.842-48.062 16.842-16.707 0-32.604-8.539-47.995-16.808-7.257-3.915-14.75-7.932-22.243-11.003-7.527-3.105-15.256-5.67-22.748-8.134-18.192-6.008-35.338-11.712-44.823-23.289-12.623-15.391-12.353-37.262-12.083-60.415 0.034-3.375 0.101-6.683 0.101-9.991 0-3.308-0.034-6.615-0.067-9.991-0.304-23.154-0.574-45.025 12.083-60.415 9.518-11.577 26.664-17.247 44.822-23.289 7.527-2.498 15.256-5.063 22.749-8.134 7.493-3.105 14.986-7.122 22.242-11.003 15.391-8.269 31.322-16.842 47.995-16.842 16.673 0 32.604 8.539 47.995 16.808 7.257 3.915 14.75 7.932 22.243 11.003 7.493 3.105 15.256 5.637 22.715 8.134 18.158 6.008 35.338 11.712 44.822 23.289 12.657 15.425 12.387 37.262 12.083 60.416-0.034 3.409-0.101 6.717-0.101 9.99 0 3.308 0.034 6.615 0.067 9.957z" fill="#915eff" fillRule="nonzero" stroke="none" strokeWidth="1" strokeLinecap="butt" strokeLinejoin="miter" strokeMiterlimit="10" strokeDasharray="" stroke-dashoffset="0" fontFamily="none" fontWeight="none" fontSize="none" textAnchor="none" style="mix-blend-mode: normal" data-fill-palette-color="tertiary"></path></g><g transform="matrix(1,0,0,1,88,108)"><svg viewBox="0 0 144 144" height="144" width="144"><g><svg viewBox="0 0 144 144" height="144" width="144"><g><svg viewBox="0 0 144 144" height="144" width="144"><g id="textblocktransform"><svg viewBox="0 0 144 144" height="144" width="144" id="textblock"><g><svg viewBox="0 0 144 144" height="144" width="144"><g transform="matrix(1,0,0,1,38.05887450304572,38.05887450304572)"><svg viewBox="0 0 67.88225099390856 67.88225099390856" height="67.88225099390856" width="67.88225099390856"><g><circle r="34" cx="33.94112549695428" cy="33.94112549695428" fill="#d90000" dataFillPaletteColor="accent"></circle></g></svg></g><g><path d="M5.172 42.867l13.546 4.775-1.306 3.706-5.127-1.807-0.899 2.549 5.127 1.807-1.323 3.754-13.546-4.775 1.323-3.753 5.324 1.877 0.899-2.55-5.324-1.876z" fill="#ffffff" dataFillPaletteColor="quaternary"></path><path d="M13.427 29.327l13.349 5.918-2.175 3.188-2.118-0.913-1.54 2.258 1.624 1.638-2.069 3.033-10.382-10.269zM18.989 37.829l1.006-1.475-4.691-2.221-0.096 0.14z" fill="#ffffff" dataFillPaletteColor="quaternary"></path><path d="M22.163 25.469c-0.936-1.009-1.392-2.092-1.367-3.249 0.02-1.152 0.541-2.203 1.565-3.152 1.024-0.95 2.167-1.82 3.429-2.61v0l2.18 3.025c-1.365 0.777-2.255 1.358-2.669 1.742v0c-0.531 0.493-0.598 0.954-0.2 1.383v0c0.158 0.171 0.439 0.219 0.841 0.144 0.398-0.079 0.859-0.198 1.383-0.357 0.524-0.159 1.079-0.284 1.665-0.376 0.592-0.095 1.222-0.037 1.892 0.177 0.674 0.218 1.285 0.622 1.832 1.212v0c0.995 1.072 1.478 2.17 1.451 3.294-0.033 1.119-0.578 2.169-1.636 3.15-1.058 0.981-2.24 1.775-3.547 2.38v0l-2.165-2.7c1.535-0.771 2.541-1.377 3.019-1.82 0.473-0.439 0.517-0.865 0.132-1.28v0c-0.204-0.219-0.516-0.302-0.936-0.247-0.421 0.055-0.898 0.162-1.431 0.321-0.528 0.154-1.086 0.282-1.673 0.381-0.588 0.11-1.218 0.055-1.892-0.162-0.674-0.218-1.298-0.637-1.873-1.256z" fill="#ffffff" dataFillPaletteColor="quaternary"></path><path d="M38.608 8.016l9.401 11.173-3.354 1.912-1.502-1.75-2.375 1.354 0.741 2.184-3.189 1.818-4.826-13.782zM39.877 18.096l1.551-0.884-3.241-4.054-0.148 0.084z" fill="#ffffff" dataFillPaletteColor="quaternary"></path><path d="M57.663 1.104l4.018 13.789-3.639 1.06-4.733-5.581-0.182 0.053 1.87 6.416-3.371 0.982-4.018-13.79 3.754-1.093 4.657 5.821 0.182-0.053-1.928-6.617z" fill="#ffffff" dataFillPaletteColor="quaternary"></path><path d="M74.709 4.129c0.134-1.37 0.642-2.429 1.524-3.178 0.875-0.749 2.008-1.056 3.397-0.92 1.39 0.136 2.799 0.415 4.228 0.836v0l-0.818 3.638c-1.487-0.507-2.512-0.788-3.074-0.843v0c-0.721-0.071-1.111 0.185-1.168 0.768v0c-0.023 0.232 0.127 0.473 0.45 0.725 0.323 0.246 0.718 0.511 1.185 0.798 0.466 0.286 0.928 0.619 1.385 0.998 0.464 0.38 0.838 0.891 1.123 1.533 0.284 0.649 0.386 1.374 0.307 2.175v0c-0.143 1.456-0.644 2.546-1.503 3.27-0.859 0.718-2.006 1.006-3.442 0.865-1.436-0.141-2.814-0.5-4.134-1.077v0l0.585-3.41c1.594 0.637 2.716 0.988 3.365 1.051 0.642 0.063 0.99-0.187 1.045-0.749v0c0.029-0.298-0.116-0.586-0.436-0.864-0.32-0.279-0.716-0.565-1.189-0.859-0.466-0.293-0.931-0.626-1.395-0.998-0.472-0.367-0.85-0.875-1.133-1.525-0.284-0.649-0.384-1.394-0.302-2.234z" fill="#ffffff" dataFillPaletteColor="quaternary"></path><path d="M98.678 4.862l-2.13 14.446-3.654-1.242 0.313-2.285-2.587-0.88-1.145 2.002-3.475-1.181 7.116-12.751zM91.974 12.496l1.691 0.575 0.885-5.114-0.16-0.055z" fill="#ffffff" dataFillPaletteColor="quaternary"></path><path d="M114.869 13.455l-2.038 2.844-2.278-1.417-5.741 9.233-3.354-2.086 5.741-9.233-2.423-1.506 2.046-2.838z" fill="#ffffff" dataFillPaletteColor="quaternary"></path><path d="M126.293 23.578l-2.582 2.36-1.936-1.857-7.526 7.846-2.851-2.735 7.526-7.845-2.058-1.975 2.589-2.354z" fill="#ffffff" dataFillPaletteColor="quaternary"></path><path d="M134.846 35.236l-10.502 10.146-2.137-3.214 1.642-1.619-1.513-2.276-2.129 0.889-2.032-3.057 13.417-5.761zM124.876 37.195l0.989 1.486 3.821-3.512-0.093-0.141z" fill="#ffffff" dataFillPaletteColor="quaternary"></path><path d="M138.577 54.723v0c-0.81 0.301-1.527 0.424-2.149 0.371-0.626-0.044-1.255-0.247-1.886-0.609v0l-5.054 3.928-1.488-4.012 4.354-3.147-0.184-0.496-4.853 1.801-1.353-3.648 13.467-4.994 1.866 5.031c0.536 1.446 0.59 2.632 0.16 3.558-0.43 0.925-1.39 1.664-2.88 2.217zM134.66 50.473c0.139 0.374 0.347 0.602 0.626 0.683 0.27 0.077 0.691 0.01 1.265-0.203 0.574-0.213 0.944-0.439 1.11-0.678 0.164-0.245 0.179-0.549 0.046-0.91v0l-0.215-0.58-3.04 1.127z" fill="#ffffff" dataFillPaletteColor="quaternary"></path><path d="M22.022 98.533l-13.756 4.869-1.331-3.761 5.209-1.844-0.919-2.595-5.209 1.844-1.347-3.808 13.756-4.869 1.347 3.808-5.406 1.913 0.918 2.595 5.407-1.913z" fill="#ffffff" dataFillPaletteColor="quaternary"></path><path d="M28.213 107.911l-10.532 10.448-2.214-3.235 1.648-1.671-1.566-2.289-2.155 0.931-2.107-3.078 13.551-6.036zM18.113 110.037l1.02 1.49 3.843-3.621-0.096-0.14z" fill="#ffffff" dataFillPaletteColor="quaternary"></path><path d="M28.341 115.055c0.948-1.025 2.007-1.572 3.176-1.641 1.178-0.069 2.287 0.377 3.327 1.339 1.04 0.962 2.009 2.054 2.908 3.275v0l-2.898 2.442c-0.893-1.316-1.555-2.172-1.984-2.57v0c-0.537-0.497-1.006-0.528-1.408-0.093v0c-0.158 0.171-0.182 0.456-0.073 0.856 0.11 0.4 0.264 0.86 0.463 1.38 0.203 0.514 0.376 1.068 0.517 1.66 0.136 0.588 0.121 1.23-0.046 1.928-0.166 0.698-0.526 1.347-1.081 1.948v0c-1.012 1.093-2.086 1.667-3.223 1.72-1.141 0.058-2.249-0.409-3.322-1.402-1.079-0.998-1.972-2.137-2.681-3.418v0l2.568-2.394c0.9 1.494 1.592 2.465 2.075 2.912 0.483 0.447 0.921 0.458 1.314 0.034v0c0.203-0.22 0.259-0.539 0.168-0.959-0.087-0.425-0.23-0.902-0.43-1.431-0.199-0.519-0.373-1.075-0.523-1.666-0.15-0.582-0.139-1.225 0.031-1.928 0.166-0.698 0.54-1.362 1.122-1.992z" fill="#ffffff" dataFillPaletteColor="quaternary"></path><path d="M47.528 123.732l-4.887 14.007-3.407-1.937 0.748-2.225-2.411-1.37-1.528 1.781-3.244-1.843 9.535-11.366zM39.383 130.07l1.569 0.892 1.867-4.939-0.148-0.084z" fill="#ffffff" dataFillPaletteColor="quaternary"></path><path d="M62.809 129.004l-4.066 14.014-3.697-1.072-1.02-7.369-0.182-0.052-1.892 6.523-3.43-0.995 4.066-14.014 3.812 1.106 0.827 7.53 0.173 0.05 1.951-6.724z" fill="#ffffff" dataFillPaletteColor="quaternary"></path><path d="M73.741 134.006c-0.136-1.39 0.159-2.544 0.884-3.464 0.731-0.927 1.802-1.459 3.212-1.596 1.41-0.138 2.87-0.137 4.379 0.003v0l-0.101 3.788c-1.577-0.207-2.657-0.282-3.239-0.225v0c-0.728 0.071-1.063 0.401-1.005 0.991v0c0.023 0.232 0.22 0.44 0.592 0.623 0.372 0.184 0.818 0.374 1.338 0.571 0.52 0.19 1.047 0.429 1.584 0.717 0.529 0.289 1 0.727 1.411 1.316 0.412 0.588 0.657 1.289 0.736 2.102v0c0.145 1.482-0.14 2.666-0.855 3.551-0.715 0.892-1.8 1.408-3.256 1.551-1.463 0.143-2.908 0.053-4.336-0.268v0l-0.082-3.51c1.715 0.32 2.9 0.448 3.555 0.385 0.655-0.064 0.955-0.384 0.899-0.96v0c-0.029-0.298-0.231-0.552-0.606-0.762-0.375-0.217-0.827-0.427-1.354-0.63-0.52-0.196-1.051-0.435-1.594-0.716-0.535-0.275-1.008-0.71-1.42-1.305-0.412-0.588-0.659-1.309-0.742-2.162z" fill="#ffffff" dataFillPaletteColor="quaternary"></path><path d="M92.973 125.434l7.222 12.959-3.712 1.26-1.166-2.038-2.625 0.891 0.315 2.326-3.532 1.199-2.159-14.677zM92.298 135.733l1.71-0.58-2.452-4.677-0.16 0.054z" fill="#ffffff" dataFillPaletteColor="quaternary"></path><path d="M105.514 118.563l1.67 3.143-2.313 1.436 5.824 9.381-3.415 2.12-5.824-9.381-2.458 1.526-1.669-3.143z" fill="#ffffff" dataFillPaletteColor="quaternary"></path><path d="M113.992 110.723l2.283 2.731-1.968 1.882 7.635 7.977-2.904 2.779-7.635-7.976-2.089 2-2.282-2.731z" fill="#ffffff" dataFillPaletteColor="quaternary"></path><path d="M120.015 102.088l13.622 5.874-2.175 3.261-2.166-0.905-1.539 2.306 1.668 1.652-2.071 3.104-10.655-10.322zM125.755 110.665l1.002-1.502-4.794-2.214-0.094 0.141z" fill="#ffffff" dataFillPaletteColor="quaternary"></path><path d="M130.513 89.443v0c0.822 0.307 1.458 0.685 1.907 1.137 0.449 0.451 0.796 1.024 1.042 1.719v0l6.496 0.334-1.519 4.075-5.443-0.474-0.192 0.514 4.935 1.839-1.376 3.692-13.674-5.096 1.902-5.104c0.548-1.47 1.294-2.416 2.239-2.837 0.941-0.43 2.168-0.363 3.683 0.201zM130.711 95.308c0.142-0.38 0.134-0.692-0.024-0.935-0.164-0.246-0.536-0.476-1.115-0.693-0.579-0.216-1.012-0.285-1.296-0.206-0.291 0.076-0.505 0.298-0.642 0.666v0l-0.223 0.598 3.084 1.149z" fill="#ffffff" dataFillPaletteColor="quaternary"></path><path d="M1.939 73.575c0-3.079 2.496-5.574 5.574-5.574 3.079 0 5.574 2.496 5.575 5.574 0 3.079-2.496 5.574-5.575 5.575-3.079 0-5.574-2.496-5.574-5.575z" fill="#ffffff" dataFillPaletteColor="quaternary"></path><path d="M131.207 73.575c0-3.079 2.496-5.574 5.575-5.574 3.079 0 5.574 2.496 5.574 5.574 0 3.079-2.496 5.574-5.574 5.575-3.079 0-5.574-2.496-5.575-5.575z" fill="#ffffff" dataFillPaletteColor="quaternary"></path></g></svg></g></svg></g></svg></g></svg></g></svg></g></svg></g><defs></defs></svg><rect width="320" height="360" fill="none" stroke="none" visibility="hidden"></rect></g></svg></g></svg>